<svg xmlns="http://www.w3.org/2000/svg" viewBox="0 0 2364.97 410"><defs><style>.cls-1{fill:#1b1b1b;}.cls-2{fill:#fff;}.cls-3{fill:#991f1f;}.cls-4{fill:#fff8f3;}</style></defs><title>full_r</title><g id="Layer_2" data-name="Layer 2"><g id="Main"><polygon class="cls-1" points="3.1 407.5 90.868 2.5 290.942 2.5 203.175 407.5 3.1 407.5"/><path class="cls-2" d="M287.843,5,201.159,405H6.2L92.884,5H287.843m6.2-5H88.851L88,3.941l-86.684,400L0,410H205.191l.854-3.941,86.684-400L294.042,0Z"/><polygon class="cls-3" points="219.365 407.5 307.133 2.5 507.207 2.5 419.439 407.5 219.365 407.5"/><path class="cls-2" d="M504.108,5,417.423,405H222.464L309.149,5H504.108m6.2-5H305.116l-.854,3.941-86.684,400L216.265,410H421.456l.854-3.941,86.684-400L510.307,0Z"/><polygon class="cls-4" points="435.63 407.5 523.397 2.5 723.472 2.5 635.704 407.5 435.63 407.5"/><path class="cls-2" d="M720.372,5,633.688,405H438.729L525.413,5H720.372m6.2-5H521.381l-.854,3.941-86.684,400L432.53,410H637.721l.854-3.941,86.684-400L726.572,0Z"/><path class="cls-2" d="M752.387,38.882h58.178l3.571,87.109,41.142-87.109h58.144L882.416,182.046h-36.23l23.645-109.18L818.27,182.046H785.476l-4.219-109.18-23.645,109.18H721.381Z"/><path class="cls-2" d="M940.362,38.882H984.7l-31,143.164H909.357Z"/><path class="cls-2" d="M1000.658,38.882h134.473l-7.657,35.351h-45.117l-23.349,107.813H1014.77l23.349-107.813H993Z"/><path class="cls-2" d="M712.95,220.976h58.179l3.571,87.109,41.141-87.109h58.144l-31,143.164H806.749l23.645-109.18L778.833,364.14H746.039L741.82,254.96,718.175,364.14H681.944Z"/><path class="cls-2" d="M878.657,292.655q7.593-35.058,31.354-54.59t58.625-19.531q35.742,0,50.922,19.19t7.693,53.759q-5.436,25.1-17.362,41.163a82.583,82.583,0,0,1-29.828,25q-17.9,8.935-41.73,8.935-24.221,0-38.417-7.715t-20.445-24.414Q873.22,317.753,878.657,292.655Zm44.2.2q-4.7,21.679,1.31,31.152t19.873,9.473q14.256,0,24.079-9.278t15.025-33.3q4.377-20.216-1.757-29.541t-20.1-9.327a33.463,33.463,0,0,0-23.536,9.473Q927.59,270.976,922.853,292.851Z"/><path class="cls-2" d="M1052.131,220.976H1186.6l-7.656,35.351H1133.83L1110.481,364.14h-44.239l23.35-107.813h-45.118Z"/><path class="cls-2" d="M1180.813,292.655q7.591-35.058,31.354-54.59t58.624-19.531q35.742,0,50.922,19.19t7.693,53.759q-5.436,25.1-17.362,41.163a82.583,82.583,0,0,1-29.828,25q-17.9,8.935-41.73,8.935-24.221,0-38.417-7.715t-20.445-24.414Q1175.377,317.753,1180.813,292.655Zm44.2.2q-4.7,21.679,1.31,31.152t19.872,9.473q14.256,0,24.079-9.278t15.024-33.3q4.378-20.216-1.756-29.541t-20.1-9.327A33.463,33.463,0,0,0,1239.9,261.5Q1229.745,270.976,1225.009,292.851Z"/><path class="cls-2" d="M1334.724,364.14l31.006-143.164h73.73q20.508,0,30.586,3.515a24.65,24.65,0,0,1,14.657,13.037q4.578,9.522,1.618,23.194a48.674,48.674,0,0,1-9.533,20.556,54.562,54.562,0,0,1-17.008,14.014,65.577,65.577,0,0,1-16.763,5.664q7.332,2.641,10.373,5.278,2.059,1.76,5.445,7.527a42.557,42.557,0,0,1,4.27,8.895l12.44,41.484h-49.987l-14.171-43.75q-2.654-8.5-5.618-11.035a15.483,15.483,0,0,0-10.121-3.321h-3.906l-12.584,58.106Zm62.876-85.157h18.653q3.025,0,12.141-1.953a15.353,15.353,0,0,0,8.151-4.492,16.671,16.671,0,0,0,4.581-8.3q1.5-6.933-2.089-10.644t-15.7-3.711H1403.9Z"/><path class="cls-2" d="M1488.087,316.776l42.661-2.636q-.853,10.254,2.183,15.625,4.951,8.692,17.649,8.691,9.471,0,15.561-4.443t7.359-10.3a10.789,10.789,0,0,0-2.726-9.961q-3.931-4.395-20.858-8.3-27.685-6.541-37.74-17.383-10.153-10.839-6.514-27.636a46.834,46.834,0,0,1,10.912-20.85q8.52-9.815,22.58-15.43t36.421-5.615q27.441,0,39.635,10.205t10.107,32.471l-42.228,2.441q.432-9.667-3.937-14.062t-13.746-4.4q-7.715,0-12.329,3.272a13.1,13.1,0,0,0-5.63,7.959,6.471,6.471,0,0,0,1.89,6.152q2.511,2.834,13.7,5.274,27.649,6.25,38.814,12.646t14.824,15.869q3.661,9.474,1.124,21.192a56.518,56.518,0,0,1-13.116,25.39,64.689,64.689,0,0,1-25.107,17.627q-14.973,6.006-35.773,6.006-36.525,0-47.541-14.062T1488.087,316.776Z"/><path class="cls-2" d="M1658.309,220.976h73.535q24.024,0,33.512,11.425t4.92,32.52q-4.7,21.68-20.376,33.887t-42.439,12.207h-24.219l-11.5,53.125H1627.3Zm31.215,61.035h10.84q12.792,0,18.931-4.444a18.573,18.573,0,0,0,7.639-11.377q1.459-6.738-2.017-11.425t-15.88-4.688h-12.6Z"/><path class="cls-2" d="M1777.447,292.655q7.593-35.058,31.354-54.59t58.624-19.531q35.743,0,50.923,19.19t7.693,53.759q-5.436,25.1-17.362,41.163a82.586,82.586,0,0,1-29.829,25q-17.9,8.935-41.73,8.935-24.219,0-38.417-7.715t-20.445-24.414Q1772.011,317.753,1777.447,292.655Zm44.2.2q-4.7,21.679,1.31,31.152t19.872,9.473q14.257,0,24.08-9.278t15.024-33.3q4.378-20.216-1.756-29.541t-20.1-9.327a33.459,33.459,0,0,0-23.535,9.473Q1826.379,270.976,1821.643,292.851Z"/><path class="cls-2" d="M1931.36,364.14l31.005-143.164H2036.1q20.508,0,30.586,3.515a24.65,24.65,0,0,1,14.657,13.037q4.578,9.522,1.618,23.194a48.686,48.686,0,0,1-9.533,20.556,54.562,54.562,0,0,1-17.008,14.014,65.577,65.577,0,0,1-16.763,5.664q7.33,2.641,10.373,5.278,2.06,1.76,5.445,7.527a42.557,42.557,0,0,1,4.27,8.895l12.439,41.484h-49.986l-14.171-43.75q-2.654-8.5-5.618-11.035a15.484,15.484,0,0,0-10.121-3.321h-3.906l-12.584,58.106Zm62.876-85.157h18.652q3.027,0,12.142-1.953a15.353,15.353,0,0,0,8.151-4.492,16.671,16.671,0,0,0,4.581-8.3q1.5-6.933-2.089-10.644t-15.7-3.711h-19.433Z"/><path class="cls-2" d="M2104.906,220.976h134.473l-7.656,35.351h-45.117l-23.35,107.813h-44.238l23.349-107.813H2097.25Z"/><path class="cls-2" d="M2227.436,316.776l42.661-2.636q-.855,10.254,2.182,15.625,4.953,8.692,17.649,8.691,9.472,0,15.562-4.443t7.358-10.3a10.788,10.788,0,0,0-2.725-9.961q-3.933-4.395-20.859-8.3-27.686-6.541-37.739-17.383-10.154-10.839-6.515-27.636a46.854,46.854,0,0,1,10.912-20.85q8.522-9.815,22.58-15.43t36.421-5.615q27.441,0,39.636,10.205t10.106,32.471l-42.228,2.441q.434-9.667-3.936-14.062t-13.746-4.4q-7.716,0-12.33,3.272a13.1,13.1,0,0,0-5.63,7.959,6.474,6.474,0,0,0,1.891,6.152q2.511,2.834,13.7,5.274,27.651,6.25,38.814,12.646t14.825,15.869q3.662,9.474,1.124,21.192a56.53,56.53,0,0,1-13.117,25.39,64.692,64.692,0,0,1-25.106,17.627q-14.975,6.006-35.774,6.006-36.523,0-47.54-14.062T2227.436,316.776Z"/></g></g></svg>