<svg xmlns="http://www.w3.org/2000/svg" viewBox="0 0 2198.32 403.73"><defs><style>.cls-1{fill:#fff;}</style></defs><title>text_r</title><g id="Layer_2" data-name="Layer 2"><g id="bars"><path class="cls-1" d="M86.73,0h76L167,115.73,221.14,0h75.95L255.9,190.2H208.57L240,45.15l-67.87,145H129.27l-5-145-31.41,145H45.54Z"/><path class="cls-1" d="M332.28,0H390.2L349,190.2H291.09Z"/><path class="cls-1" d="M414.6,0H590.26L580.08,47H521.15l-31,143.23H432.34L463.36,47H404.43Z"/><path class="cls-1" d="M41.19,210.29h76L121.43,326,175.6,210.29h76l-41.19,190.2H163l31.41-145L126.56,400.49H83.73l-5-145L47.33,400.49H0Z"/><path class="cls-1" d="M256.6,305.52q10.09-46.57,41.22-72.53t76.68-26q46.68,0,66.42,25.5T450.71,304q-7.21,33.35-22.88,54.69a108.85,108.85,0,0,1-39.08,33.21q-23.43,11.86-54.56,11.87-31.63,0-50.14-10.25t-26.59-32.43Q249.38,338.87,256.6,305.52Zm57.73.26q-6.24,28.8,1.56,41.38t25.92,12.59q18.62,0,31.5-12.33t19.78-44.24q5.82-26.85-2.15-39.25t-26.21-12.39q-17.48,0-30.79,12.59T314.33,305.78Z"/><path class="cls-1" d="M483.55,210.29H659.21l-10.17,47H590.1l-31,143.24H501.29l31-143.24H473.38Z"/><path class="cls-1" d="M651.3,305.52q10.08-46.57,41.22-72.53t76.67-26q46.69,0,66.43,25.5T845.41,304q-7.21,33.35-22.88,54.69a108.94,108.94,0,0,1-39.08,33.21Q760,403.73,728.89,403.73q-31.64,0-50.14-10.25t-26.59-32.43Q644.08,338.87,651.3,305.52Zm57.73.26q-6.24,28.8,1.56,41.38t25.91,12.59q18.63,0,31.51-12.33t19.78-44.24q5.82-26.85-2.15-39.25t-26.21-12.39q-17.48,0-30.79,12.59T709,305.78Z"/><path class="cls-1" d="M852,400.49l41.19-190.2h96.31q26.79,0,39.94,4.67a32.15,32.15,0,0,1,19.08,17.32q5.94,12.65,2,30.81A65.21,65.21,0,0,1,1038,290.4,71.88,71.88,0,0,1,1015.7,309q-8.38,4.55-21.93,7.52,9.57,3.51,13.53,7,2.69,2.34,7.07,10t5.54,11.81L1036,400.49h-65.3l-18.3-58.13q-3.42-11.28-7.28-14.66a20,20,0,0,0-13.21-4.41h-5.1l-16.72,77.2Zm82.54-113.14h24.37q3.95,0,15.87-2.59a20.11,20.11,0,0,0,10.67-6,22.42,22.42,0,0,0,6-11q2-9.21-2.68-14.14t-20.49-4.93H942.93Z"/><path class="cls-1" d="M1052.57,337.56l55.74-3.5q-1.15,13.62,2.78,20.76,6.42,11.55,23,11.55,12.38,0,20.35-5.91t9.66-13.69a14.45,14.45,0,0,0-3.51-13.23q-5.11-5.84-27.21-11-36.14-8.68-49.21-23.09t-8.38-36.72Q1079,248,1090.16,235t29.57-20.5q18.39-7.45,47.6-7.46,35.85,0,51.73,13.56t13,43.14L1176.93,267q.6-12.84-5.08-18.68t-17.93-5.84q-10.08,0-16.12,4.35t-7.4,10.57a8.7,8.7,0,0,0,2.44,8.18q3.27,3.76,17.88,7,36.09,8.31,50.64,16.8t19.29,21.09q4.72,12.58,1.36,28.15-4,18.3-17.25,33.73a85,85,0,0,1-32.89,23.42q-19.59,8-46.76,8-47.7,0-62-18.68T1052.57,337.56Z"/><path class="cls-1" d="M1275.39,210.29h96.06q31.38,0,43.72,15.18t6.27,43.2q-6.24,28.8-26.78,45t-55.5,16.22h-31.63l-15.29,70.58h-58Zm40.48,81.09H1330q16.71,0,24.75-5.91a24.81,24.81,0,0,0,10-15.11q1.93-9-2.58-15.18T1341.51,249h-16.45Z"/><path class="cls-1" d="M1430.67,305.52q10.1-46.57,41.22-72.53t76.68-26q46.68,0,66.42,25.5t9.79,71.42q-7.21,33.35-22.88,54.69a108.85,108.85,0,0,1-39.08,33.21q-23.43,11.86-54.55,11.87-31.65,0-50.15-10.25t-26.59-32.43Q1423.45,338.87,1430.67,305.52Zm57.73.26q-6.23,28.8,1.56,41.38t25.92,12.59q18.61,0,31.5-12.33t19.78-44.24q5.82-26.85-2.15-39.25t-26.21-12.39q-17.47,0-30.79,12.59T1488.4,305.78Z"/><path class="cls-1" d="M1631.38,400.49l41.19-190.2h96.31q26.79,0,39.94,4.67a32.19,32.19,0,0,1,19.09,17.32q5.92,12.65,2,30.81a65.35,65.35,0,0,1-12.56,27.31A71.88,71.88,0,0,1,1795.07,309q-8.38,4.55-21.92,7.52,9.55,3.51,13.52,7c1.79,1.56,4.14,4.89,7.08,10s4.77,9,5.53,11.81l16,55.12H1750l-18.31-58.13q-3.42-11.28-7.28-14.66a19.94,19.94,0,0,0-13.21-4.41h-5.1l-16.72,77.2Zm82.54-113.14h24.37q3.95,0,15.87-2.59a20.11,20.11,0,0,0,10.67-6,22.34,22.34,0,0,0,6-11q2-9.21-2.68-14.14t-20.49-4.93H1722.3Z"/><path class="cls-1" d="M1858.77,210.29h175.66l-10.17,47h-58.94l-31,143.24h-57.78l31-143.24H1848.6Z"/><path class="cls-1" d="M2018.37,337.56l55.74-3.5q-1.17,13.62,2.77,20.76,6.43,11.55,23,11.55,12.36,0,20.34-5.91t9.67-13.69a14.48,14.48,0,0,0-3.52-13.23q-5.11-5.84-27.2-11-36.14-8.68-49.22-23.09t-8.37-36.72Q2044.77,248,2056,235t29.57-20.5q18.39-7.45,47.6-7.46,35.85,0,51.73,13.56t13,43.14L2142.72,267q.62-12.84-5.07-18.68t-17.94-5.84q-10.08,0-16.12,4.35t-7.39,10.57a8.68,8.68,0,0,0,2.44,8.18q3.26,3.76,17.87,7,36.09,8.31,50.64,16.8t19.29,21.09q4.74,12.58,1.37,28.15a76,76,0,0,1-17.26,33.73,84.87,84.87,0,0,1-32.88,23.42q-19.59,8-46.76,8-47.71,0-62-18.68T2018.37,337.56Z"/></g></g></svg>