<svg xmlns="http://www.w3.org/2000/svg" width="723.16" height="410" viewBox="0 0 723.16 410"><defs><style>.cls-1{fill:#1b1b1b;}.cls-2{fill:#991f1f;}.cls-3{fill:#fff8f3;}</style></defs><title>bars</title><g id="Layer_2" data-name="Layer 2"><g id="bars"><polygon class="cls-1" points="3.1 407.5 90.87 2.5 290.94 2.5 203.18 407.5 3.1 407.5"/><path d="M287.84,5,201.16,405H6.2L92.88,5h195M294,0H88.85L88,3.94l-86.69,400L0,410H205.19l.86-3.94,86.68-400L294,0Z"/><polygon class="cls-2" points="217.66 407.5 305.43 2.5 505.5 2.5 417.73 407.5 217.66 407.5"/><path d="M502.4,5,415.72,405h-195L307.44,5h195m6.2-5H303.41l-.86,3.94-86.68,400L214.56,410H419.75l.85-3.94,86.69-400L508.6,0Z"/><polygon class="cls-3" points="432.21 407.5 519.98 2.5 720.06 2.5 632.29 407.5 432.21 407.5"/><path d="M717,5,630.27,405h-195L522,5H717m6.2-5H518l-.86,3.94-86.68,400L429.11,410h205.2l.85-3.94,86.68-400L723.16,0Z"/></g></g></svg>