<svg xmlns="http://www.w3.org/2000/svg" width="2852.8" height="410" viewBox="0 0 2852.8 410"><defs><style>.cls-1{fill:#1b1b1b;}.cls-2{fill:#991f1f;}.cls-3{fill:#fff8f3;}</style></defs><title>full</title><g id="Layer_2" data-name="Layer 2"><g id="bars"><polygon class="cls-1" points="3.1 407.5 90.87 2.5 290.94 2.5 203.18 407.5 3.1 407.5"/><path d="M287.84,5,201.16,405H6.2L92.88,5h195M294,0H88.85L88,3.94l-86.69,400L0,410H205.19l.86-3.94,86.68-400L294,0Z"/><polygon class="cls-2" points="217.66 407.5 305.43 2.5 505.5 2.5 417.73 407.5 217.66 407.5"/><path d="M502.4,5,415.72,405h-195L307.44,5h195m6.2-5H303.41l-.86,3.94-86.68,400L214.56,410H419.75l.85-3.94,86.69-400L508.6,0Z"/><polygon class="cls-3" points="432.21 407.5 519.98 2.5 720.06 2.5 632.29 407.5 432.21 407.5"/><path d="M717,5,630.27,405h-195L522,5H717m6.2-5H518l-.86,3.94-86.68,400L429.11,410h205.2l.85-3.94,86.68-400L723.16,0Z"/><path d="M741.21,5h76l4.24,115.73L875.61,5h75.95L910.37,195.2H863.05l31.41-145-67.88,145H783.74l-5-145-31.42,145H700Z"/><path d="M986.76,5h57.91l-41.19,190.2H945.56Z"/><path d="M1069.07,5h175.66l-10.17,47h-58.94l-31,143.23h-57.78l31-143.23H1058.9Z"/><path d="M695.67,215.29h76L775.91,331l54.16-115.73H906l-41.19,190.2H817.5l31.42-145L781,405.49H738.2l-5-145L701.8,405.49H654.48Z"/><path d="M911.08,310.52Q921.16,263.95,952.3,238T1029,212q46.69,0,66.43,25.5t9.79,71.42q-7.23,33.35-22.88,54.69a109.07,109.07,0,0,1-39.09,33.21q-23.42,11.86-54.55,11.87-31.63,0-50.15-10.25t-26.58-32.43Q903.85,343.87,911.08,310.52Zm57.73.26q-6.24,28.8,1.56,41.38t25.91,12.59q18.63,0,31.5-12.33t19.79-44.24q5.82-26.85-2.15-39.25t-26.21-12.39q-17.49,0-30.79,12.59T968.81,310.78Z"/><path d="M1138,215.29h175.65l-10.17,47h-58.93l-31,143.24h-57.79l31-143.24h-58.94Z"/><path d="M1305.78,310.52Q1315.86,263.95,1347,238t76.67-26q46.69,0,66.43,25.5t9.79,71.42q-7.23,33.35-22.88,54.69a109.07,109.07,0,0,1-39.09,33.21q-23.43,11.86-54.55,11.87-31.63,0-50.15-10.25t-26.59-32.43Q1298.56,343.87,1305.78,310.52Zm57.73.26q-6.24,28.8,1.56,41.38T1391,364.75q18.63,0,31.5-12.33t19.79-44.24q5.81-26.85-2.16-39.25t-26.21-12.39q-17.48,0-30.79,12.59T1363.51,310.78Z"/><path d="M1506.48,405.49l41.2-190.2H1644q26.79,0,39.94,4.67A32.2,32.2,0,0,1,1703,237.28q5.92,12.65,2,30.81a65.46,65.46,0,0,1-12.55,27.31A71.92,71.92,0,0,1,1670.17,314q-8.39,4.55-21.92,7.52,9.55,3.51,13.52,7,2.68,2.34,7.08,10t5.54,11.81l16,55.12h-65.29l-18.3-58.13q-3.43-11.28-7.29-14.66a19.93,19.93,0,0,0-13.2-4.41h-5.11l-16.71,77.2ZM1589,292.35h24.36q4,0,15.87-2.59a20.07,20.07,0,0,0,10.67-6,22.36,22.36,0,0,0,6-11q2-9.21-2.68-14.14t-20.49-4.93H1597.4Z"/><path d="M1707.05,342.56l55.74-3.5q-1.17,13.62,2.77,20.76,6.43,11.55,23,11.55,12.36,0,20.34-5.91t9.67-13.69a14.48,14.48,0,0,0-3.52-13.23q-5.11-5.84-27.2-11-36.13-8.68-49.22-23.09t-8.37-36.72q3.17-14.65,14.35-27.7t29.57-20.5q18.39-7.45,47.6-7.46,35.85,0,51.73,13.56t13,43.14L1831.4,272q.61-12.84-5.07-18.68t-17.94-5.84q-10.08,0-16.12,4.35t-7.39,10.57a8.68,8.68,0,0,0,2.44,8.18q3.26,3.76,17.87,7,36.09,8.31,50.64,16.8t19.29,21.09q4.74,12.58,1.37,28.15a76,76,0,0,1-17.26,33.73,84.87,84.87,0,0,1-32.88,23.42q-19.59,8-46.76,8-47.71,0-62-18.68T1707.05,342.56Z"/><path d="M1929.87,215.29h96.05q31.38,0,43.72,15.18t6.27,43.2q-6.24,28.8-26.78,45t-55.49,16.22H1962l-15.29,70.58h-58Zm40.48,81.08h14.16q16.71,0,24.75-5.9a24.79,24.79,0,0,0,10-15.11q1.93-9-2.58-15.18T1996,254h-16.46Z"/><path d="M2085.15,310.52q10.08-46.57,41.22-72.53T2203,212q46.7,0,66.43,25.5t9.79,71.42q-7.23,33.35-22.88,54.69a109.07,109.07,0,0,1-39.09,33.21q-23.41,11.86-54.55,11.87-31.63,0-50.15-10.25T2086,366.05Q2077.92,343.87,2085.15,310.52Zm57.73.26q-6.24,28.8,1.56,41.38t25.91,12.59q18.63,0,31.5-12.33t19.79-44.24q5.82-26.85-2.15-39.25t-26.21-12.39q-17.49,0-30.79,12.59T2142.88,310.78Z"/><path d="M2285.86,405.49l41.19-190.2h96.31q26.79,0,39.94,4.67a32.2,32.2,0,0,1,19.08,17.32q5.94,12.65,2,30.81a65.34,65.34,0,0,1-12.55,27.31A71.88,71.88,0,0,1,2449.55,314q-8.4,4.55-21.93,7.52,9.57,3.51,13.52,7,2.68,2.34,7.08,10t5.54,11.81l16,55.12h-65.3l-18.3-58.13q-3.42-11.28-7.29-14.66a19.93,19.93,0,0,0-13.2-4.41h-5.1l-16.72,77.2Zm82.54-113.14h24.37q3.95,0,15.87-2.59a20,20,0,0,0,10.66-6,22.36,22.36,0,0,0,6-11q2-9.21-2.68-14.14t-20.49-4.93h-25.39Z"/><path d="M2513.25,215.29h175.66l-10.18,47H2619.8l-31,143.24H2531l31-143.24h-58.93Z"/><path d="M2672.84,342.56l55.74-3.5q-1.15,13.62,2.78,20.76,6.42,11.55,23,11.55,12.38,0,20.35-5.91t9.66-13.69a14.45,14.45,0,0,0-3.51-13.23q-5.11-5.84-27.21-11-36.13-8.68-49.21-23.09t-8.38-36.72q3.18-14.65,14.36-27.7T2740,219.5q18.39-7.45,47.6-7.46,35.85,0,51.73,13.56t13,43.14L2797.2,272q.6-12.84-5.08-18.68t-17.93-5.84q-10.08,0-16.12,4.35t-7.4,10.57a8.7,8.7,0,0,0,2.44,8.18q3.27,3.76,17.88,7,36.09,8.31,50.64,16.8t19.29,21.09q4.73,12.58,1.36,28.15-4,18.3-17.25,33.73a85,85,0,0,1-32.89,23.42q-19.59,8-46.75,8-47.71,0-62-18.68T2672.84,342.56Z"/></g></g></svg>